<svg id="visual" viewBox="0 0 900 600" width="900" height="600" xmlns="http://www.w3.org/2000/svg" xmlns:xlink="http://www.w3.org/1999/xlink" version="1.1"><g stroke-width="1" stroke-linejoin="bevel"><path d="M476 297L515 308.7L476 296.9Z" fill="#382388" stroke="#382388"></path><path d="M476 297L511 320.9L515 308.7Z" fill="#4c32af" stroke="#4c32af"></path><path d="M544 290.3L526 291L515 308.7Z" fill="#6242d8" stroke="#6242d8"></path><path d="M515 308.7L526 291L476 296.9Z" fill="#331f7e" stroke="#331f7e"></path><path d="M476 297L500 332.7L511 320.9Z" fill="#331f7e" stroke="#331f7e"></path><path d="M413 288.3L464 327.1L476 297Z" fill="#331f7e" stroke="#331f7e"></path><path d="M476 297L464 327.1L500 332.7Z" fill="#3d2691" stroke="#3d2691"></path><path d="M568 351.6L544 290.3L515 308.7Z" fill="#382388" stroke="#382388"></path><path d="M577 300.9L544 290.3L568 351.6Z" fill="#4c32af" stroke="#4c32af"></path><path d="M544 246.1L476 243.1L526 291Z" fill="#472ea5" stroke="#472ea5"></path><path d="M526 291L476 243.1L476 296.9Z" fill="#3d2691" stroke="#3d2691"></path><path d="M476 296.9L413 288.3L476 297Z" fill="#382388" stroke="#382388"></path><path d="M544 290.3L544 246.1L526 291Z" fill="#6746e3" stroke="#6746e3"></path><path d="M544 290.3L558 258.1L544 246.1Z" fill="#573ac3" stroke="#573ac3"></path><path d="M568 351.6L515 308.7L511 320.9Z" fill="#422a9b" stroke="#422a9b"></path><path d="M544 290.3L577 300.9L558 258.1Z" fill="#422a9b" stroke="#422a9b"></path><path d="M558 258.1L555 238.3L544 246.1Z" fill="#3d2691" stroke="#3d2691"></path><path d="M536 175.3L449 193.4L476 243.1Z" fill="#5136b9" stroke="#5136b9"></path><path d="M586 216.1L555 238.3L558 258.1Z" fill="#422a9b" stroke="#422a9b"></path><path d="M545 381.6L545 365.9L480 396.6Z" fill="#573ac3" stroke="#573ac3"></path><path d="M500 332.7L545 365.9L511 320.9Z" fill="#422a9b" stroke="#422a9b"></path><path d="M476 243.1L413 288.3L476 296.9Z" fill="#331f7e" stroke="#331f7e"></path><path d="M545 365.9L568 351.6L511 320.9Z" fill="#5136b9" stroke="#5136b9"></path><path d="M392 338.9L430 364.6L464 327.1Z" fill="#3d2691" stroke="#3d2691"></path><path d="M464 327.1L480 396.6L500 332.7Z" fill="#331f7e" stroke="#331f7e"></path><path d="M480 396.6L545 365.9L500 332.7Z" fill="#5c3ece" stroke="#5c3ece"></path><path d="M545 365.9L545 381.6L568 351.6Z" fill="#3d2691" stroke="#3d2691"></path><path d="M430 364.6L480 396.6L464 327.1Z" fill="#422a9b" stroke="#422a9b"></path><path d="M436 405.9L497 409.9L480 396.6Z" fill="#6746e3" stroke="#6746e3"></path><path d="M480 396.6L497 409.9L545 381.6Z" fill="#5c3ece" stroke="#5c3ece"></path><path d="M413 288.3L392 338.9L464 327.1Z" fill="#4c32af" stroke="#4c32af"></path><path d="M536 175.3L476 243.1L544 246.1Z" fill="#5136b9" stroke="#5136b9"></path><path d="M476 243.1L449 193.4L413 288.3Z" fill="#6746e3" stroke="#6746e3"></path><path d="M353 250.1L377 349L392 338.9Z" fill="#472ea5" stroke="#472ea5"></path><path d="M612 341.7L615 306L577 300.9Z" fill="#472ea5" stroke="#472ea5"></path><path d="M577 300.9L615 306L558 258.1Z" fill="#422a9b" stroke="#422a9b"></path><path d="M612 341.7L577 300.9L568 351.6Z" fill="#331f7e" stroke="#331f7e"></path><path d="M615 306L586 216.1L558 258.1Z" fill="#472ea5" stroke="#472ea5"></path><path d="M555 238.3L536 175.3L544 246.1Z" fill="#472ea5" stroke="#472ea5"></path><path d="M608 419.6L612 341.7L568 351.6Z" fill="#382388" stroke="#382388"></path><path d="M377 380.7L436 405.9L430 364.6Z" fill="#472ea5" stroke="#472ea5"></path><path d="M430 364.6L436 405.9L480 396.6Z" fill="#6746e3" stroke="#6746e3"></path><path d="M586 216.1L536 175.3L555 238.3Z" fill="#4c32af" stroke="#4c32af"></path><path d="M447 156.4L428 187.4L449 193.4Z" fill="#5c3ece" stroke="#5c3ece"></path><path d="M449 193.4L428 187.4L413 288.3Z" fill="#3d2691" stroke="#3d2691"></path><path d="M359 356L377 349L303 299.1Z" fill="#6242d8" stroke="#6242d8"></path><path d="M392 338.9L377 380.7L430 364.6Z" fill="#573ac3" stroke="#573ac3"></path><path d="M377 349L377 380.7L392 338.9Z" fill="#6746e3" stroke="#6746e3"></path><path d="M491 145.4L447 156.4L449 193.4Z" fill="#6746e3" stroke="#6746e3"></path><path d="M558 443.6L558 434.4L497 409.9Z" fill="#331f7e" stroke="#331f7e"></path><path d="M497 409.9L558 434.4L545 381.6Z" fill="#422a9b" stroke="#422a9b"></path><path d="M545 381.6L608 419.6L568 351.6Z" fill="#5c3ece" stroke="#5c3ece"></path><path d="M353 250.1L392 338.9L413 288.3Z" fill="#422a9b" stroke="#422a9b"></path><path d="M377 349L359 356L377 380.7Z" fill="#573ac3" stroke="#573ac3"></path><path d="M536 175.3L491 145.4L449 193.4Z" fill="#573ac3" stroke="#573ac3"></path><path d="M390 188.3L413 288.3L428 187.4Z" fill="#573ac3" stroke="#573ac3"></path><path d="M390 188.3L353 250.1L413 288.3Z" fill="#6746e3" stroke="#6746e3"></path><path d="M447 156.4L390 188.3L428 187.4Z" fill="#6746e3" stroke="#6746e3"></path><path d="M558 434.4L565 434.4L545 381.6Z" fill="#331f7e" stroke="#331f7e"></path><path d="M547 489.1L558 443.6L508 502.1Z" fill="#472ea5" stroke="#472ea5"></path><path d="M558 434.4L558 443.6L565 434.4Z" fill="#5c3ece" stroke="#5c3ece"></path><path d="M612 341.7L657 319L615 306Z" fill="#3d2691" stroke="#3d2691"></path><path d="M615 306L680 273L586 216.1Z" fill="#331f7e" stroke="#331f7e"></path><path d="M695 379.9L657 319L612 341.7Z" fill="#472ea5" stroke="#472ea5"></path><path d="M608 419.6L545 381.6L565 434.4Z" fill="#573ac3" stroke="#573ac3"></path><path d="M491 145.4L462 138.7L447 156.4Z" fill="#422a9b" stroke="#422a9b"></path><path d="M365 160.3L351 188.3L390 188.3Z" fill="#5c3ece" stroke="#5c3ece"></path><path d="M587 153.7L558 145.7L536 175.3Z" fill="#3d2691" stroke="#3d2691"></path><path d="M536 175.3L558 145.7L491 145.4Z" fill="#6746e3" stroke="#6746e3"></path><path d="M491 145.4L471 110.6L462 138.7Z" fill="#3d2691" stroke="#3d2691"></path><path d="M587 153.7L536 175.3L586 216.1Z" fill="#382388" stroke="#382388"></path><path d="M558 443.6L574 442.3L565 434.4Z" fill="#4c32af" stroke="#4c32af"></path><path d="M574 442.3L608 419.6L565 434.4Z" fill="#6746e3" stroke="#6746e3"></path><path d="M371 418.7L428 450.7L436 405.9Z" fill="#5136b9" stroke="#5136b9"></path><path d="M436 405.9L428 450.7L497 409.9Z" fill="#382388" stroke="#382388"></path><path d="M605 162.4L587 153.7L586 216.1Z" fill="#6242d8" stroke="#6242d8"></path><path d="M700 191.1L605 162.4L586 216.1Z" fill="#6746e3" stroke="#6746e3"></path><path d="M322 378.9L371 418.7L377 380.7Z" fill="#3d2691" stroke="#3d2691"></path><path d="M377 380.7L371 418.7L436 405.9Z" fill="#382388" stroke="#382388"></path><path d="M390 188.3L351 188.3L353 250.1Z" fill="#5136b9" stroke="#5136b9"></path><path d="M365 160.3L390 188.3L447 156.4Z" fill="#331f7e" stroke="#331f7e"></path><path d="M691 310.9L680 273L657 319Z" fill="#573ac3" stroke="#573ac3"></path><path d="M657 319L680 273L615 306Z" fill="#472ea5" stroke="#472ea5"></path><path d="M540 113.6L471 110.6L491 145.4Z" fill="#331f7e" stroke="#331f7e"></path><path d="M462 138.7L411 91.9L447 156.4Z" fill="#472ea5" stroke="#472ea5"></path><path d="M540 113.6L491 145.4L558 145.7Z" fill="#6746e3" stroke="#6746e3"></path><path d="M562 117.7L558 145.7L587 153.7Z" fill="#5136b9" stroke="#5136b9"></path><path d="M562 117.7L540 113.6L558 145.7Z" fill="#472ea5" stroke="#472ea5"></path><path d="M411 91.9L365 160.3L447 156.4Z" fill="#573ac3" stroke="#573ac3"></path><path d="M571 97.4L562 117.7L628 112.4Z" fill="#6242d8" stroke="#6242d8"></path><path d="M303 299.1L322 378.9L359 356Z" fill="#573ac3" stroke="#573ac3"></path><path d="M359 356L322 378.9L377 380.7Z" fill="#422a9b" stroke="#422a9b"></path><path d="M303 299.1L377 349L353 250.1Z" fill="#472ea5" stroke="#472ea5"></path><path d="M700 338.7L691 310.9L657 319Z" fill="#5136b9" stroke="#5136b9"></path><path d="M298 293L303 299.1L353 250.1Z" fill="#4c32af" stroke="#4c32af"></path><path d="M508 502.1L558 443.6L497 409.9Z" fill="#3d2691" stroke="#3d2691"></path><path d="M558 443.6L581 488.3L574 442.3Z" fill="#422a9b" stroke="#422a9b"></path><path d="M574 442.3L631 444.4L608 419.6Z" fill="#5136b9" stroke="#5136b9"></path><path d="M581 488.3L631 444.4L574 442.3Z" fill="#4c32af" stroke="#4c32af"></path><path d="M608 419.6L653 424.7L612 341.7Z" fill="#6746e3" stroke="#6746e3"></path><path d="M315 213.1L353 250.1L351 188.3Z" fill="#472ea5" stroke="#472ea5"></path><path d="M315 213.1L298 293L353 250.1Z" fill="#472ea5" stroke="#472ea5"></path><path d="M303 299.1L313 382.9L322 378.9Z" fill="#5136b9" stroke="#5136b9"></path><path d="M723 290.3L693 254.1L680 273Z" fill="#5c3ece" stroke="#5c3ece"></path><path d="M680 273L693 254.1L586 216.1Z" fill="#5c3ece" stroke="#5c3ece"></path><path d="M338 448.6L364 446.7L371 418.7Z" fill="#3d2691" stroke="#3d2691"></path><path d="M371 418.7L364 446.7L428 450.7Z" fill="#4c32af" stroke="#4c32af"></path><path d="M473 501.3L508 502.1L497 409.9Z" fill="#5c3ece" stroke="#5c3ece"></path><path d="M329 184.1L315 213.1L351 188.3Z" fill="#573ac3" stroke="#573ac3"></path><path d="M547 489.1L556 489.4L558 443.6Z" fill="#4c32af" stroke="#4c32af"></path><path d="M631 444.4L653 424.7L608 419.6Z" fill="#573ac3" stroke="#573ac3"></path><path d="M339 168.4L329 184.1L351 188.3Z" fill="#6242d8" stroke="#6242d8"></path><path d="M243 365.7L313 382.9L303 299.1Z" fill="#5136b9" stroke="#5136b9"></path><path d="M322 378.9L319 420.4L371 418.7Z" fill="#5c3ece" stroke="#5c3ece"></path><path d="M337 158.6L339 168.4L365 160.3Z" fill="#3d2691" stroke="#3d2691"></path><path d="M365 160.3L339 168.4L351 188.3Z" fill="#3d2691" stroke="#3d2691"></path><path d="M473 501.3L497 409.9L428 450.7Z" fill="#573ac3" stroke="#573ac3"></path><path d="M547 489.1L526 515.4L556 489.4Z" fill="#4c32af" stroke="#4c32af"></path><path d="M418 500.1L473 501.3L428 450.7Z" fill="#472ea5" stroke="#472ea5"></path><path d="M695 379.9L700 338.7L657 319Z" fill="#5136b9" stroke="#5136b9"></path><path d="M691 310.9L723 290.3L680 273Z" fill="#3d2691" stroke="#3d2691"></path><path d="M619 542.3L581 488.3L556 489.4Z" fill="#6746e3" stroke="#6746e3"></path><path d="M556 489.4L581 488.3L558 443.6Z" fill="#6242d8" stroke="#6242d8"></path><path d="M571 97.4L541 90.9L562 117.7Z" fill="#382388" stroke="#382388"></path><path d="M562 117.7L541 90.9L540 113.6Z" fill="#5136b9" stroke="#5136b9"></path><path d="M540 113.6L541 90.9L471 110.6Z" fill="#3d2691" stroke="#3d2691"></path><path d="M562 117.7L587 153.7L628 112.4Z" fill="#5c3ece" stroke="#5c3ece"></path><path d="M338 448.6L369 464.4L364 446.7Z" fill="#6242d8" stroke="#6242d8"></path><path d="M364 446.7L369 464.4L428 450.7Z" fill="#6242d8" stroke="#6242d8"></path><path d="M331 156.6L337 158.6L341 131.7Z" fill="#4c32af" stroke="#4c32af"></path><path d="M339 168.4L331 156.6L329 184.1Z" fill="#6242d8" stroke="#6242d8"></path><path d="M262 159.6L248 189.1L315 213.1Z" fill="#573ac3" stroke="#573ac3"></path><path d="M243 365.7L309 395.6L313 382.9Z" fill="#3d2691" stroke="#3d2691"></path><path d="M313 382.9L309 395.6L322 378.9Z" fill="#422a9b" stroke="#422a9b"></path><path d="M526 515.4L521 508.3L508 502.1Z" fill="#6746e3" stroke="#6746e3"></path><path d="M508 502.1L521 508.3L547 489.1Z" fill="#5136b9" stroke="#5136b9"></path><path d="M628 112.4L587 153.7L605 162.4Z" fill="#3d2691" stroke="#3d2691"></path><path d="M653 424.7L695 379.9L612 341.7Z" fill="#422a9b" stroke="#422a9b"></path><path d="M695 379.9L710 333.1L700 338.7Z" fill="#573ac3" stroke="#573ac3"></path><path d="M700 338.7L710 333.1L691 310.9Z" fill="#331f7e" stroke="#331f7e"></path><path d="M741 259L706 238.4L693 254.1Z" fill="#422a9b" stroke="#422a9b"></path><path d="M693 254.1L701 219.3L586 216.1Z" fill="#5136b9" stroke="#5136b9"></path><path d="M309 395.6L319 420.4L322 378.9Z" fill="#6746e3" stroke="#6746e3"></path><path d="M706 238.4L703 227.3L693 254.1Z" fill="#4c32af" stroke="#4c32af"></path><path d="M341 131.7L337 158.6L365 160.3Z" fill="#382388" stroke="#382388"></path><path d="M337 158.6L331 156.6L339 168.4Z" fill="#3d2691" stroke="#3d2691"></path><path d="M700 191.1L701 219.3L737 175.6Z" fill="#331f7e" stroke="#331f7e"></path><path d="M703 227.3L701 219.3L693 254.1Z" fill="#4c32af" stroke="#4c32af"></path><path d="M376 478.3L418 500.1L428 450.7Z" fill="#6242d8" stroke="#6242d8"></path><path d="M504 563.3L526 515.4L508 502.1Z" fill="#331f7e" stroke="#331f7e"></path><path d="M342 479.3L376 478.3L369 464.4Z" fill="#6746e3" stroke="#6746e3"></path><path d="M369 464.4L376 478.3L428 450.7Z" fill="#6746e3" stroke="#6746e3"></path><path d="M515 57.6L453 81.9L471 110.6Z" fill="#4c32af" stroke="#4c32af"></path><path d="M471 110.6L411 91.9L462 138.7Z" fill="#5c3ece" stroke="#5c3ece"></path><path d="M319 420.4L338 448.6L371 418.7Z" fill="#3d2691" stroke="#3d2691"></path><path d="M521 508.3L526 515.4L547 489.1Z" fill="#422a9b" stroke="#422a9b"></path><path d="M504 563.3L508 502.1L473 501.3Z" fill="#6746e3" stroke="#6746e3"></path><path d="M739 385.9L717 331L710 333.1Z" fill="#331f7e" stroke="#331f7e"></path><path d="M710 333.1L717 331L691 310.9Z" fill="#422a9b" stroke="#422a9b"></path><path d="M453 81.9L411 91.9L471 110.6Z" fill="#6242d8" stroke="#6242d8"></path><path d="M717 331L723 290.3L691 310.9Z" fill="#422a9b" stroke="#422a9b"></path><path d="M737 175.6L701 219.3L764 201.3Z" fill="#6746e3" stroke="#6746e3"></path><path d="M693 155.7L628 112.4L605 162.4Z" fill="#4c32af" stroke="#4c32af"></path><path d="M346 124.4L341 131.7L365 160.3Z" fill="#472ea5" stroke="#472ea5"></path><path d="M764 201.3L703 227.3L706 238.4Z" fill="#3d2691" stroke="#3d2691"></path><path d="M701 219.3L700 191.1L586 216.1Z" fill="#6242d8" stroke="#6242d8"></path><path d="M411 91.9L346 124.4L365 160.3Z" fill="#5c3ece" stroke="#5c3ece"></path><path d="M453 81.9L408 76.7L411 91.9Z" fill="#6746e3" stroke="#6746e3"></path><path d="M411 91.9L332 101.4L346 124.4Z" fill="#422a9b" stroke="#422a9b"></path><path d="M414 0L408 76.7L453 81.9Z" fill="#472ea5" stroke="#472ea5"></path><path d="M273 497.3L342 479.3L338 448.6Z" fill="#331f7e" stroke="#331f7e"></path><path d="M338 448.6L342 479.3L369 464.4Z" fill="#6242d8" stroke="#6242d8"></path><path d="M359 526.4L423 527.4L418 500.1Z" fill="#472ea5" stroke="#472ea5"></path><path d="M260 450.3L338 448.6L319 420.4Z" fill="#573ac3" stroke="#573ac3"></path><path d="M534 55.6L515 57.6L541 90.9Z" fill="#382388" stroke="#382388"></path><path d="M541 90.9L515 57.6L471 110.6Z" fill="#6242d8" stroke="#6242d8"></path><path d="M534 55.6L541 90.9L571 97.4Z" fill="#422a9b" stroke="#422a9b"></path><path d="M737 175.6L693 155.7L700 191.1Z" fill="#6746e3" stroke="#6746e3"></path><path d="M700 191.1L693 155.7L605 162.4Z" fill="#4c32af" stroke="#4c32af"></path><path d="M359 526.4L418 500.1L376 478.3Z" fill="#472ea5" stroke="#472ea5"></path><path d="M418 500.1L423 527.4L473 501.3Z" fill="#331f7e" stroke="#331f7e"></path><path d="M585 35.9L534 55.6L571 97.4Z" fill="#3d2691" stroke="#3d2691"></path><path d="M759 312L741 259L723 290.3Z" fill="#573ac3" stroke="#573ac3"></path><path d="M723 290.3L741 259L693 254.1Z" fill="#331f7e" stroke="#331f7e"></path><path d="M315 213.1L251 274.9L298 293Z" fill="#4c32af" stroke="#4c32af"></path><path d="M298 293L236 327.1L303 299.1Z" fill="#5c3ece" stroke="#5c3ece"></path><path d="M309 395.6L260 450.3L319 420.4Z" fill="#573ac3" stroke="#573ac3"></path><path d="M226 239.3L251 274.9L315 213.1Z" fill="#5136b9" stroke="#5136b9"></path><path d="M315 213.1L329 184.1L262 159.6Z" fill="#6242d8" stroke="#6242d8"></path><path d="M631 444.4L670 495.6L653 424.7Z" fill="#573ac3" stroke="#573ac3"></path><path d="M748 416.6L739 385.9L695 379.9Z" fill="#3d2691" stroke="#3d2691"></path><path d="M695 379.9L739 385.9L710 333.1Z" fill="#472ea5" stroke="#472ea5"></path><path d="M581 488.3L647 495.1L631 444.4Z" fill="#5136b9" stroke="#5136b9"></path><path d="M619 542.3L647 495.1L581 488.3Z" fill="#4c32af" stroke="#4c32af"></path><path d="M693 155.7L649 95.9L628 112.4Z" fill="#331f7e" stroke="#331f7e"></path><path d="M628 112.4L599 54.6L571 97.4Z" fill="#6746e3" stroke="#6746e3"></path><path d="M346 124.4L332 101.4L341 131.7Z" fill="#422a9b" stroke="#422a9b"></path><path d="M341 131.7L332 101.4L331 156.6Z" fill="#573ac3" stroke="#573ac3"></path><path d="M408 76.7L332 101.4L411 91.9Z" fill="#3d2691" stroke="#3d2691"></path><path d="M748 416.6L695 379.9L653 424.7Z" fill="#422a9b" stroke="#422a9b"></path><path d="M717 331L759 312L723 290.3Z" fill="#422a9b" stroke="#422a9b"></path><path d="M739 385.9L759 312L717 331Z" fill="#422a9b" stroke="#422a9b"></path><path d="M607 50.9L599 54.6L628 112.4Z" fill="#6746e3" stroke="#6746e3"></path><path d="M251 274.9L236 327.1L298 293Z" fill="#331f7e" stroke="#331f7e"></path><path d="M665 537.3L670 495.6L647 495.1Z" fill="#422a9b" stroke="#422a9b"></path><path d="M647 495.1L670 495.6L631 444.4Z" fill="#5136b9" stroke="#5136b9"></path><path d="M236 327.1L243 365.7L303 299.1Z" fill="#5c3ece" stroke="#5c3ece"></path><path d="M455 572.1L504 563.3L473 501.3Z" fill="#472ea5" stroke="#472ea5"></path><path d="M526 515.4L619 542.3L556 489.4Z" fill="#6242d8" stroke="#6242d8"></path><path d="M302 516.1L359 526.4L342 479.3Z" fill="#4c32af" stroke="#4c32af"></path><path d="M342 479.3L359 526.4L376 478.3Z" fill="#382388" stroke="#382388"></path><path d="M423 527.4L455 572.1L473 501.3Z" fill="#382388" stroke="#382388"></path><path d="M764 201.3L701 219.3L703 227.3Z" fill="#5136b9" stroke="#5136b9"></path><path d="M693 155.7L737 101.7L649 95.9Z" fill="#382388" stroke="#382388"></path><path d="M764 201.3L706 238.4L741 259Z" fill="#5c3ece" stroke="#5c3ece"></path><path d="M649 95.9L607 50.9L628 112.4Z" fill="#6746e3" stroke="#6746e3"></path><path d="M599 54.6L585 35.9L571 97.4Z" fill="#573ac3" stroke="#573ac3"></path><path d="M615 15.9L607 50.9L683 0Z" fill="#331f7e" stroke="#331f7e"></path><path d="M262 159.6L329 184.1L331 156.6Z" fill="#4c32af" stroke="#4c32af"></path><path d="M251 274.9L167 298.9L236 327.1Z" fill="#472ea5" stroke="#472ea5"></path><path d="M332 101.4L262 159.6L331 156.6Z" fill="#331f7e" stroke="#331f7e"></path><path d="M555 600L619 542.3L526 515.4Z" fill="#5136b9" stroke="#5136b9"></path><path d="M607 50.9L585 35.9L599 54.6Z" fill="#6242d8" stroke="#6242d8"></path><path d="M534 55.6L511 20.7L515 57.6Z" fill="#5c3ece" stroke="#5c3ece"></path><path d="M515 57.6L511 20.7L453 81.9Z" fill="#3d2691" stroke="#3d2691"></path><path d="M518 0L511 20.7L542 0Z" fill="#331f7e" stroke="#331f7e"></path><path d="M368 0L295 60.7L332 101.4Z" fill="#5c3ece" stroke="#5c3ece"></path><path d="M248 189.1L226 239.3L315 213.1Z" fill="#472ea5" stroke="#472ea5"></path><path d="M670 495.6L748 416.6L653 424.7Z" fill="#6746e3" stroke="#6746e3"></path><path d="M739 385.9L785 380.9L759 312Z" fill="#472ea5" stroke="#472ea5"></path><path d="M431 600L455 572.1L423 527.4Z" fill="#5c3ece" stroke="#5c3ece"></path><path d="M223 402.6L260 450.3L309 395.6Z" fill="#573ac3" stroke="#573ac3"></path><path d="M799 236.4L764 201.3L741 259Z" fill="#422a9b" stroke="#422a9b"></path><path d="M737 175.6L739 132.6L693 155.7Z" fill="#4c32af" stroke="#4c32af"></path><path d="M748 416.6L769 391.6L739 385.9Z" fill="#3d2691" stroke="#3d2691"></path><path d="M759 312L799 236.4L741 259Z" fill="#3d2691" stroke="#3d2691"></path><path d="M757 153.4L739 132.6L737 175.6Z" fill="#5c3ece" stroke="#5c3ece"></path><path d="M609 0L542 0L585 35.9Z" fill="#331f7e" stroke="#331f7e"></path><path d="M619 542.3L665 537.3L647 495.1Z" fill="#472ea5" stroke="#472ea5"></path><path d="M670 495.6L779 485.4L748 416.6Z" fill="#6242d8" stroke="#6242d8"></path><path d="M792 384.7L785 380.9L769 391.6Z" fill="#331f7e" stroke="#331f7e"></path><path d="M682 542.4L665 537.3L657 600Z" fill="#3d2691" stroke="#3d2691"></path><path d="M543 600L526 515.4L504 563.3Z" fill="#6746e3" stroke="#6746e3"></path><path d="M273 497.3L302 516.1L342 479.3Z" fill="#3d2691" stroke="#3d2691"></path><path d="M370 600L431 600L423 527.4Z" fill="#5c3ece" stroke="#5c3ece"></path><path d="M243 365.7L223 402.6L309 395.6Z" fill="#573ac3" stroke="#573ac3"></path><path d="M260 450.3L273 497.3L338 448.6Z" fill="#5136b9" stroke="#5136b9"></path><path d="M207 387.9L223 402.6L243 365.7Z" fill="#5c3ece" stroke="#5c3ece"></path><path d="M207 387.9L243 365.7L236 327.1Z" fill="#422a9b" stroke="#422a9b"></path><path d="M764 201.3L757 153.4L737 175.6Z" fill="#472ea5" stroke="#472ea5"></path><path d="M518 0L496 0L511 20.7Z" fill="#5136b9" stroke="#5136b9"></path><path d="M511 20.7L463 0L453 81.9Z" fill="#6242d8" stroke="#6242d8"></path><path d="M223 402.6L235 437.6L260 450.3Z" fill="#3d2691" stroke="#3d2691"></path><path d="M542 0L511 20.7L534 55.6Z" fill="#3d2691" stroke="#3d2691"></path><path d="M248 189.1L206 234L226 239.3Z" fill="#422a9b" stroke="#422a9b"></path><path d="M226 239.3L191 238.4L251 274.9Z" fill="#472ea5" stroke="#472ea5"></path><path d="M194 235L206 234L165 189.1Z" fill="#3d2691" stroke="#3d2691"></path><path d="M496 0L463 0L511 20.7Z" fill="#472ea5" stroke="#472ea5"></path><path d="M792 384.7L769 391.6L827 404.9Z" fill="#3d2691" stroke="#3d2691"></path><path d="M769 391.6L785 380.9L739 385.9Z" fill="#331f7e" stroke="#331f7e"></path><path d="M615 15.9L585 35.9L607 50.9Z" fill="#5c3ece" stroke="#5c3ece"></path><path d="M585 35.9L542 0L534 55.6Z" fill="#6242d8" stroke="#6242d8"></path><path d="M244 468.4L273 497.3L260 450.3Z" fill="#331f7e" stroke="#331f7e"></path><path d="M223 402.6L203 444.7L235 437.6Z" fill="#5136b9" stroke="#5136b9"></path><path d="M171 364L207 387.9L236 327.1Z" fill="#4c32af" stroke="#4c32af"></path><path d="M683 0L607 50.9L649 95.9Z" fill="#331f7e" stroke="#331f7e"></path><path d="M511 604.1L537 600L504 563.3Z" fill="#4c32af" stroke="#4c32af"></path><path d="M201 454.6L244 468.4L235 437.6Z" fill="#573ac3" stroke="#573ac3"></path><path d="M235 437.6L244 468.4L260 450.3Z" fill="#573ac3" stroke="#573ac3"></path><path d="M537 600L543 600L504 563.3Z" fill="#4c32af" stroke="#4c32af"></path><path d="M645 600L665 537.3L619 542.3Z" fill="#472ea5" stroke="#472ea5"></path><path d="M665 537.3L682 542.4L670 495.6Z" fill="#331f7e" stroke="#331f7e"></path><path d="M827 404.9L769 391.6L812 469.3Z" fill="#422a9b" stroke="#422a9b"></path><path d="M785 380.9L802 373L759 312Z" fill="#4c32af" stroke="#4c32af"></path><path d="M764 201.3L796 198.3L757 153.4Z" fill="#3d2691" stroke="#3d2691"></path><path d="M431 600L511 604.1L455 572.1Z" fill="#5c3ece" stroke="#5c3ece"></path><path d="M455 572.1L511 604.1L504 563.3Z" fill="#3d2691" stroke="#3d2691"></path><path d="M537 600L511 604.1L543 600Z" fill="#3d2691" stroke="#3d2691"></path><path d="M812 245.1L799 236.4L759 312Z" fill="#5136b9" stroke="#5136b9"></path><path d="M463 0L414 0L453 81.9Z" fill="#382388" stroke="#382388"></path><path d="M332 101.4L255 97.6L262 159.6Z" fill="#5c3ece" stroke="#5c3ece"></path><path d="M628 620.1L555 600L543 600Z" fill="#6242d8" stroke="#6242d8"></path><path d="M543 600L555 600L526 515.4Z" fill="#4c32af" stroke="#4c32af"></path><path d="M794 88.7L737 101.7L739 132.6Z" fill="#382388" stroke="#382388"></path><path d="M739 132.6L737 101.7L693 155.7Z" fill="#573ac3" stroke="#573ac3"></path><path d="M794 88.7L739 132.6L757 153.4Z" fill="#382388" stroke="#382388"></path><path d="M193 153.4L206 234L248 189.1Z" fill="#5136b9" stroke="#5136b9"></path><path d="M206 234L191 238.4L226 239.3Z" fill="#472ea5" stroke="#472ea5"></path><path d="M370 600L423 527.4L359 526.4Z" fill="#5c3ece" stroke="#5c3ece"></path><path d="M368 0L332 101.4L408 76.7Z" fill="#5136b9" stroke="#5136b9"></path><path d="M262 159.6L193 153.4L248 189.1Z" fill="#6242d8" stroke="#6242d8"></path><path d="M191 238.3L191 238.4L194 235Z" fill="#5136b9" stroke="#5136b9"></path><path d="M194 235L191 238.4L206 234Z" fill="#422a9b" stroke="#422a9b"></path><path d="M163 226L191 238.3L194 235Z" fill="#422a9b" stroke="#422a9b"></path><path d="M295 60.7L255 97.6L332 101.4Z" fill="#6746e3" stroke="#6746e3"></path><path d="M827 404.9L802 373L792 384.7Z" fill="#5136b9" stroke="#5136b9"></path><path d="M792 384.7L802 373L785 380.9Z" fill="#331f7e" stroke="#331f7e"></path><path d="M799 236.4L796 198.3L764 201.3Z" fill="#573ac3" stroke="#573ac3"></path><path d="M812 245.1L807 232.3L799 236.4Z" fill="#3d2691" stroke="#3d2691"></path><path d="M799 236.4L807 232.3L796 198.3Z" fill="#6242d8" stroke="#6242d8"></path><path d="M683 0L609 0L615 15.9Z" fill="#6242d8" stroke="#6242d8"></path><path d="M615 15.9L609 0L585 35.9Z" fill="#382388" stroke="#382388"></path><path d="M171 364L198 402.6L207 387.9Z" fill="#3d2691" stroke="#3d2691"></path><path d="M207 387.9L198 402.6L223 402.6Z" fill="#5136b9" stroke="#5136b9"></path><path d="M628 620.1L595 600L555 600Z" fill="#331f7e" stroke="#331f7e"></path><path d="M555 600L595 600L619 542.3Z" fill="#4c32af" stroke="#4c32af"></path><path d="M846 330.1L812 245.1L759 312Z" fill="#472ea5" stroke="#472ea5"></path><path d="M807 232.3L831 225.4L796 198.3Z" fill="#4c32af" stroke="#4c32af"></path><path d="M707 21.7L772 0L712 5.9Z" fill="#422a9b" stroke="#422a9b"></path><path d="M737 101.7L714 62.6L649 95.9Z" fill="#6242d8" stroke="#6242d8"></path><path d="M269 525.4L333 571.1L302 516.1Z" fill="#4c32af" stroke="#4c32af"></path><path d="M302 516.1L333 571.1L359 526.4Z" fill="#422a9b" stroke="#422a9b"></path><path d="M269 525.4L302 516.1L273 497.3Z" fill="#5c3ece" stroke="#5c3ece"></path><path d="M244 468.4L263 518.3L273 497.3Z" fill="#5136b9" stroke="#5136b9"></path><path d="M183 488.4L263 518.3L244 468.4Z" fill="#573ac3" stroke="#573ac3"></path><path d="M237 92.6L241 100.6L255 97.6Z" fill="#331f7e" stroke="#331f7e"></path><path d="M255 97.6L241 100.6L262 159.6Z" fill="#4c32af" stroke="#4c32af"></path><path d="M263 518.3L269 525.4L273 497.3Z" fill="#5c3ece" stroke="#5c3ece"></path><path d="M414 0L368 0L408 76.7Z" fill="#472ea5" stroke="#472ea5"></path><path d="M244 42.7L237 92.6L255 97.6Z" fill="#5c3ece" stroke="#5c3ece"></path><path d="M333 571.1L370 600L359 526.4Z" fill="#331f7e" stroke="#331f7e"></path><path d="M338 626.1L628 620.1L511 604.1Z" fill="#5136b9" stroke="#5136b9"></path><path d="M364 600L370 600L333 571.1Z" fill="#382388" stroke="#382388"></path><path d="M198 402.6L203 444.7L223 402.6Z" fill="#382388" stroke="#382388"></path><path d="M160 238.4L167 298.9L191 238.4Z" fill="#331f7e" stroke="#331f7e"></path><path d="M191 238.4L167 298.9L251 274.9Z" fill="#6242d8" stroke="#6242d8"></path><path d="M190 472.3L201 454.6L203 444.7Z" fill="#573ac3" stroke="#573ac3"></path><path d="M160 238.4L191 238.4L191 238.3Z" fill="#6746e3" stroke="#6746e3"></path><path d="M244 42.7L255 97.6L295 60.7Z" fill="#4c32af" stroke="#4c32af"></path><path d="M241 100.6L193 153.4L262 159.6Z" fill="#422a9b" stroke="#422a9b"></path><path d="M338 626.1L364 600L333 571.1Z" fill="#472ea5" stroke="#472ea5"></path><path d="M338 626.1L511 604.1L431 600Z" fill="#3d2691" stroke="#3d2691"></path><path d="M155 320.7L171 364L236 327.1Z" fill="#5136b9" stroke="#5136b9"></path><path d="M190 472.3L203 444.7L143 384.7Z" fill="#5136b9" stroke="#5136b9"></path><path d="M203 444.7L201 454.6L235 437.6Z" fill="#4c32af" stroke="#4c32af"></path><path d="M224 600L297 600L269 525.4Z" fill="#331f7e" stroke="#331f7e"></path><path d="M237 92.6L193 153.4L241 100.6Z" fill="#573ac3" stroke="#573ac3"></path><path d="M628 620.1L645 600L595 600Z" fill="#472ea5" stroke="#472ea5"></path><path d="M595 600L645 600L619 542.3Z" fill="#422a9b" stroke="#422a9b"></path><path d="M761 539.3L779 485.4L670 495.6Z" fill="#331f7e" stroke="#331f7e"></path><path d="M368 0L280 36.9L295 60.7Z" fill="#6242d8" stroke="#6242d8"></path><path d="M761 539.3L670 495.6L682 542.4Z" fill="#5136b9" stroke="#5136b9"></path><path d="M900 250L831 225.4L812 245.1Z" fill="#4c32af" stroke="#4c32af"></path><path d="M812 245.1L831 225.4L807 232.3Z" fill="#6242d8" stroke="#6242d8"></path><path d="M862 116.6L794 88.7L757 153.4Z" fill="#6746e3" stroke="#6746e3"></path><path d="M165 189.1L163 226L194 235Z" fill="#3d2691" stroke="#3d2691"></path><path d="M163 226L160 238.4L191 238.3Z" fill="#4c32af" stroke="#4c32af"></path><path d="M167 298.9L155 320.7L236 327.1Z" fill="#6242d8" stroke="#6242d8"></path><path d="M628 620.1L657 600L645 600Z" fill="#3d2691" stroke="#3d2691"></path><path d="M645 600L657 600L665 537.3Z" fill="#422a9b" stroke="#422a9b"></path><path d="M117 282.9L155 320.7L167 298.9Z" fill="#6242d8" stroke="#6242d8"></path><path d="M143 384.7L203 444.7L198 402.6Z" fill="#382388" stroke="#382388"></path><path d="M707 21.7L714 62.6L772 0Z" fill="#472ea5" stroke="#472ea5"></path><path d="M714 62.6L707 21.7L649 95.9Z" fill="#6242d8" stroke="#6242d8"></path><path d="M834 415.7L827 404.9L812 469.3Z" fill="#573ac3" stroke="#573ac3"></path><path d="M802 373L846 330.1L759 312Z" fill="#331f7e" stroke="#331f7e"></path><path d="M338 626.1L431 600L370 600Z" fill="#4c32af" stroke="#4c32af"></path><path d="M511 604.1L628 620.1L543 600Z" fill="#4c32af" stroke="#4c32af"></path><path d="M120 231L165 189.1L101 141.6Z" fill="#422a9b" stroke="#422a9b"></path><path d="M193 153.4L165 189.1L206 234Z" fill="#472ea5" stroke="#472ea5"></path><path d="M115 281.3L117 282.9L120 231Z" fill="#4c32af" stroke="#4c32af"></path><path d="M707 21.7L683 0L649 95.9Z" fill="#6746e3" stroke="#6746e3"></path><path d="M845 364.7L846 330.1L802 373Z" fill="#3d2691" stroke="#3d2691"></path><path d="M143 384.7L198 402.6L171 364Z" fill="#382388" stroke="#382388"></path><path d="M201 454.6L190 472.3L244 468.4Z" fill="#3d2691" stroke="#3d2691"></path><path d="M269 525.4L297 600L333 571.1Z" fill="#573ac3" stroke="#573ac3"></path><path d="M827 404.9L845 364.7L802 373Z" fill="#6746e3" stroke="#6746e3"></path><path d="M76 333.1L147 359.7L155 320.7Z" fill="#3d2691" stroke="#3d2691"></path><path d="M155 320.7L147 359.7L171 364Z" fill="#3d2691" stroke="#3d2691"></path><path d="M143 384.7L147 359.7L88 400.4Z" fill="#5c3ece" stroke="#5c3ece"></path><path d="M812 469.3L769 391.6L748 416.6Z" fill="#382388" stroke="#382388"></path><path d="M827 404.9L837 413.7L845 364.7Z" fill="#573ac3" stroke="#573ac3"></path><path d="M791 529.1L761 539.3L769 563.1Z" fill="#6242d8" stroke="#6242d8"></path><path d="M769 563.1L761 539.3L748 600Z" fill="#4c32af" stroke="#4c32af"></path><path d="M779 485.4L812 469.3L748 416.6Z" fill="#4c32af" stroke="#4c32af"></path><path d="M824 484.6L812 469.3L779 485.4Z" fill="#4c32af" stroke="#4c32af"></path><path d="M247 0L244 42.7L280 36.9Z" fill="#382388" stroke="#382388"></path><path d="M280 36.9L244 42.7L295 60.7Z" fill="#573ac3" stroke="#573ac3"></path><path d="M237 92.6L152 99.6L193 153.4Z" fill="#6746e3" stroke="#6746e3"></path><path d="M848 476.6L837 413.7L834 415.7Z" fill="#5c3ece" stroke="#5c3ece"></path><path d="M834 415.7L837 413.7L827 404.9Z" fill="#422a9b" stroke="#422a9b"></path><path d="M414 0L342 -27.1L368 0Z" fill="#573ac3" stroke="#573ac3"></path><path d="M368 0L342 -27.1L280 36.9Z" fill="#3d2691" stroke="#3d2691"></path><path d="M463 0L342 -27.1L414 0Z" fill="#382388" stroke="#382388"></path><path d="M496 0L342 -27.1L463 0Z" fill="#472ea5" stroke="#472ea5"></path><path d="M518 0L342 -27.1L496 0Z" fill="#6746e3" stroke="#6746e3"></path><path d="M542 0L342 -27.1L518 0Z" fill="#4c32af" stroke="#4c32af"></path><path d="M609 0L342 -27.1L542 0Z" fill="#6746e3" stroke="#6746e3"></path><path d="M683 0L342 -27.1L609 0Z" fill="#472ea5" stroke="#472ea5"></path><path d="M707 21.7L706 0L683 0Z" fill="#4c32af" stroke="#4c32af"></path><path d="M794 88.7L714 62.6L737 101.7Z" fill="#3d2691" stroke="#3d2691"></path><path d="M823 75.9L794 88.7L862 116.6Z" fill="#5136b9" stroke="#5136b9"></path><path d="M712 5.9L706 0L707 21.7Z" fill="#4c32af" stroke="#4c32af"></path><path d="M683 0L900 -18.1L342 -27.1Z" fill="#472ea5" stroke="#472ea5"></path><path d="M212 549.3L269 525.4L263 518.3Z" fill="#573ac3" stroke="#573ac3"></path><path d="M364 600L338 626.1L370 600Z" fill="#331f7e" stroke="#331f7e"></path><path d="M117 282.9L167 298.9L160 238.4Z" fill="#6242d8" stroke="#6242d8"></path><path d="M147 359.7L143 384.7L171 364Z" fill="#382388" stroke="#382388"></path><path d="M824 484.6L820 468.4L812 469.3Z" fill="#382388" stroke="#382388"></path><path d="M812 469.3L820 468.4L834 415.7Z" fill="#3d2691" stroke="#3d2691"></path><path d="M297 600L338 626.1L333 571.1Z" fill="#422a9b" stroke="#422a9b"></path><path d="M166 507.1L183 488.4L190 472.3Z" fill="#5136b9" stroke="#5136b9"></path><path d="M190 472.3L183 488.4L244 468.4Z" fill="#3d2691" stroke="#3d2691"></path><path d="M761 539.3L791 529.1L779 485.4Z" fill="#5136b9" stroke="#5136b9"></path><path d="M761 539.3L682 542.4L748 600Z" fill="#382388" stroke="#382388"></path><path d="M791 529.1L824 484.6L779 485.4Z" fill="#5136b9" stroke="#5136b9"></path><path d="M820 468.4L848 476.6L834 415.7Z" fill="#331f7e" stroke="#331f7e"></path><path d="M748 600L682 542.4L657 600Z" fill="#573ac3" stroke="#573ac3"></path><path d="M850 490.1L848 476.6L824 484.6Z" fill="#3d2691" stroke="#3d2691"></path><path d="M117 282.9L160 238.4L120 231Z" fill="#3d2691" stroke="#3d2691"></path><path d="M183 488.4L212 549.3L263 518.3Z" fill="#3d2691" stroke="#3d2691"></path><path d="M297 600L197 633.1L338 626.1Z" fill="#472ea5" stroke="#472ea5"></path><path d="M120 231L160 238.4L163 226Z" fill="#5136b9" stroke="#5136b9"></path><path d="M64 365.7L88 400.4L147 359.7Z" fill="#6242d8" stroke="#6242d8"></path><path d="M120 231L163 226L165 189.1Z" fill="#3d2691" stroke="#3d2691"></path><path d="M101 141.6L165 189.1L193 153.4Z" fill="#4c32af" stroke="#4c32af"></path><path d="M837 413.7L877 376L845 364.7Z" fill="#6746e3" stroke="#6746e3"></path><path d="M845 364.7L877 376L846 330.1Z" fill="#3d2691" stroke="#3d2691"></path><path d="M846 330.1L900 250L812 245.1Z" fill="#4c32af" stroke="#4c32af"></path><path d="M862 116.6L757 153.4L796 198.3Z" fill="#4c32af" stroke="#4c32af"></path><path d="M900 403.4L877 376L837 413.7Z" fill="#472ea5" stroke="#472ea5"></path><path d="M273 -28.1L247 0L280 36.9Z" fill="#422a9b" stroke="#422a9b"></path><path d="M244 42.7L195 41.9L237 92.6Z" fill="#382388" stroke="#382388"></path><path d="M120 231L106 276.1L115 281.3Z" fill="#573ac3" stroke="#573ac3"></path><path d="M74 284.3L76 333.1L117 282.9Z" fill="#422a9b" stroke="#422a9b"></path><path d="M88 400.4L166 507.1L190 472.3Z" fill="#6746e3" stroke="#6746e3"></path><path d="M183 488.4L166 507.1L212 549.3Z" fill="#331f7e" stroke="#331f7e"></path><path d="M88 400.4L190 472.3L143 384.7Z" fill="#5c3ece" stroke="#5c3ece"></path><path d="M749 612.1L748 600L657 600Z" fill="#382388" stroke="#382388"></path><path d="M850 490.1L824 484.6L822 542.4Z" fill="#6746e3" stroke="#6746e3"></path><path d="M862 116.6L796 198.3L900 183.4Z" fill="#422a9b" stroke="#422a9b"></path><path d="M794 88.7L772 0L714 62.6Z" fill="#4c32af" stroke="#4c32af"></path><path d="M712 5.9L772 0L706 0Z" fill="#573ac3" stroke="#573ac3"></path><path d="M795 560.3L791 529.1L769 563.1Z" fill="#5c3ece" stroke="#5c3ece"></path><path d="M824 484.6L848 476.6L820 468.4Z" fill="#4c32af" stroke="#4c32af"></path><path d="M342 -27.1L273 -28.1L280 36.9Z" fill="#331f7e" stroke="#331f7e"></path><path d="M216 0L244 42.7L247 0Z" fill="#422a9b" stroke="#422a9b"></path><path d="M216 0L195 41.9L244 42.7Z" fill="#382388" stroke="#382388"></path><path d="M798 600L795 560.3L769 563.1Z" fill="#5136b9" stroke="#5136b9"></path><path d="M195 41.9L152 99.6L237 92.6Z" fill="#5136b9" stroke="#5136b9"></path><path d="M74 284.3L115 281.3L106 276.1Z" fill="#472ea5" stroke="#472ea5"></path><path d="M822 542.4L824 484.6L791 529.1Z" fill="#422a9b" stroke="#422a9b"></path><path d="M848 476.6L900 403.4L837 413.7Z" fill="#472ea5" stroke="#472ea5"></path><path d="M900 312.7L846 330.1L877 376Z" fill="#4c32af" stroke="#4c32af"></path><path d="M900 312.7L900 306.9L846 330.1Z" fill="#382388" stroke="#382388"></path><path d="M900 403.4L900 312.7L877 376Z" fill="#382388" stroke="#382388"></path><path d="M748 600L798 600L769 563.1Z" fill="#382388" stroke="#382388"></path><path d="M628 620.1L749 612.1L657 600Z" fill="#6746e3" stroke="#6746e3"></path><path d="M792 0L772 0L794 88.7Z" fill="#472ea5" stroke="#472ea5"></path><path d="M706 0L900 -18.1L683 0Z" fill="#3d2691" stroke="#3d2691"></path><path d="M900 306.9L900 250L846 330.1Z" fill="#3d2691" stroke="#3d2691"></path><path d="M900 183.4L796 198.3L831 225.4Z" fill="#573ac3" stroke="#573ac3"></path><path d="M823 75.9L792 0L794 88.7Z" fill="#6746e3" stroke="#6746e3"></path><path d="M795 560.3L822 542.4L791 529.1Z" fill="#3d2691" stroke="#3d2691"></path><path d="M849 600L822 542.4L795 560.3Z" fill="#472ea5" stroke="#472ea5"></path><path d="M215 600L224 600L212 549.3Z" fill="#382388" stroke="#382388"></path><path d="M212 549.3L224 600L269 525.4Z" fill="#382388" stroke="#382388"></path><path d="M273 -28.1L216 0L247 0Z" fill="#472ea5" stroke="#472ea5"></path><path d="M195 41.9L127 69.7L152 99.6Z" fill="#3d2691" stroke="#3d2691"></path><path d="M900 250L900 221.3L831 225.4Z" fill="#5136b9" stroke="#5136b9"></path><path d="M900 221.3L900 211.1L831 225.4Z" fill="#6746e3" stroke="#6746e3"></path><path d="M194 600L215 600L212 549.3Z" fill="#422a9b" stroke="#422a9b"></path><path d="M224 600L197 633.1L297 600Z" fill="#5c3ece" stroke="#5c3ece"></path><path d="M273 -28.1L208 0L216 0Z" fill="#3d2691" stroke="#3d2691"></path><path d="M216 0L208 0L195 41.9Z" fill="#573ac3" stroke="#573ac3"></path><path d="M900 491.3L848 476.6L850 490.1Z" fill="#5c3ece" stroke="#5c3ece"></path><path d="M900 491.3L900 403.4L848 476.6Z" fill="#5c3ece" stroke="#5c3ece"></path><path d="M874 103.9L869 105.6L862 116.6Z" fill="#331f7e" stroke="#331f7e"></path><path d="M862 116.6L869 105.6L823 75.9Z" fill="#5136b9" stroke="#5136b9"></path><path d="M795 -4.1L792 0L863 52.7Z" fill="#4c32af" stroke="#4c32af"></path><path d="M772 0L795 -4.1L706 0Z" fill="#382388" stroke="#382388"></path><path d="M900 211.1L900 183.4L831 225.4Z" fill="#5136b9" stroke="#5136b9"></path><path d="M76 333.1L155 320.7L117 282.9Z" fill="#422a9b" stroke="#422a9b"></path><path d="M162 589.3L194 600L212 549.3Z" fill="#6242d8" stroke="#6242d8"></path><path d="M74 284.3L117 282.9L115 281.3Z" fill="#6746e3" stroke="#6746e3"></path><path d="M74 284.3L106 276.1L54 245.4Z" fill="#5c3ece" stroke="#5c3ece"></path><path d="M900 138.6L874 103.9L862 116.6Z" fill="#422a9b" stroke="#422a9b"></path><path d="M869 105.6L863 52.7L823 75.9Z" fill="#5c3ece" stroke="#5c3ece"></path><path d="M863 52.7L792 0L823 75.9Z" fill="#382388" stroke="#382388"></path><path d="M792 0L795 -4.1L772 0Z" fill="#3d2691" stroke="#3d2691"></path><path d="M54 245.4L106 276.1L120 231Z" fill="#3d2691" stroke="#3d2691"></path><path d="M96 138.6L101 141.6L152 99.6Z" fill="#6242d8" stroke="#6242d8"></path><path d="M152 99.6L101 141.6L193 153.4Z" fill="#5c3ece" stroke="#5c3ece"></path><path d="M749 612.1L798 600L748 600Z" fill="#5c3ece" stroke="#5c3ece"></path><path d="M900 491.6L900 491.3L850 490.1Z" fill="#5c3ece" stroke="#5c3ece"></path><path d="M140 535.1L212 549.3L166 507.1Z" fill="#4c32af" stroke="#4c32af"></path><path d="M215 600L197 633.1L224 600Z" fill="#3d2691" stroke="#3d2691"></path><path d="M65 501.6L140 535.1L166 507.1Z" fill="#382388" stroke="#382388"></path><path d="M127 69.7L96 138.6L152 99.6Z" fill="#573ac3" stroke="#573ac3"></path><path d="M56 191.3L54 245.4L120 231Z" fill="#4c32af" stroke="#4c32af"></path><path d="M900 183.4L900 138.6L862 116.6Z" fill="#422a9b" stroke="#422a9b"></path><path d="M874 103.9L863 52.7L869 105.6Z" fill="#3d2691" stroke="#3d2691"></path><path d="M124 12.9L127 69.7L195 41.9Z" fill="#472ea5" stroke="#472ea5"></path><path d="M273 -28.1L177 0L208 0Z" fill="#3d2691" stroke="#3d2691"></path><path d="M208 0L177 0L195 41.9Z" fill="#5c3ece" stroke="#5c3ece"></path><path d="M76 333.1L64 365.7L147 359.7Z" fill="#6746e3" stroke="#6746e3"></path><path d="M65 501.6L114 545.4L140 535.1Z" fill="#5c3ece" stroke="#5c3ece"></path><path d="M0 333.9L64 365.7L76 333.1Z" fill="#3d2691" stroke="#3d2691"></path><path d="M869 52.7L863 52.7L874 103.9Z" fill="#3d2691" stroke="#3d2691"></path><path d="M900 99.7L869 52.7L874 103.9Z" fill="#3d2691" stroke="#3d2691"></path><path d="M863 52.7L900 0L795 -4.1Z" fill="#5c3ece" stroke="#5c3ece"></path><path d="M140 535.1L162 589.3L212 549.3Z" fill="#573ac3" stroke="#573ac3"></path><path d="M114 545.4L162 589.3L140 535.1Z" fill="#6242d8" stroke="#6242d8"></path><path d="M56 191.3L120 231L101 141.6Z" fill="#3d2691" stroke="#3d2691"></path><path d="M74 284.3L0 333.9L76 333.1Z" fill="#4c32af" stroke="#4c32af"></path><path d="M900 491.6L850 490.1L912 504.4Z" fill="#3d2691" stroke="#3d2691"></path><path d="M912 504.4L850 490.1L900 567.1Z" fill="#6242d8" stroke="#6242d8"></path><path d="M162 589.3L168 600L194 600Z" fill="#5c3ece" stroke="#5c3ece"></path><path d="M194 600L197 633.1L215 600Z" fill="#5136b9" stroke="#5136b9"></path><path d="M900 138.6L900 99.7L874 103.9Z" fill="#573ac3" stroke="#573ac3"></path><path d="M273 -28.1L160 -2.1L177 0Z" fill="#382388" stroke="#382388"></path><path d="M177 0L160 -2.1L195 41.9Z" fill="#5c3ece" stroke="#5c3ece"></path><path d="M168 600L197 633.1L194 600Z" fill="#331f7e" stroke="#331f7e"></path><path d="M338 626.1L197 633.1L628 620.1Z" fill="#6746e3" stroke="#6746e3"></path><path d="M96 138.6L56 191.3L101 141.6Z" fill="#5c3ece" stroke="#5c3ece"></path><path d="M42 115.7L56 191.3L96 138.6Z" fill="#3d2691" stroke="#3d2691"></path><path d="M77 64.7L96 138.6L127 69.7Z" fill="#3d2691" stroke="#3d2691"></path><path d="M65 501.6L166 507.1L88 400.4Z" fill="#6746e3" stroke="#6746e3"></path><path d="M162 589.3L143 600L168 600Z" fill="#6242d8" stroke="#6242d8"></path><path d="M168 600L143 600L197 633.1Z" fill="#4c32af" stroke="#4c32af"></path><path d="M900 567.1L850 490.1L822 542.4Z" fill="#5136b9" stroke="#5136b9"></path><path d="M900 491.6L912 504.4L900 491.3Z" fill="#5136b9" stroke="#5136b9"></path><path d="M900 491.3L912 504.4L900 403.4Z" fill="#6242d8" stroke="#6242d8"></path><path d="M900 403.4L912 504.4L900 312.7Z" fill="#573ac3" stroke="#573ac3"></path><path d="M900 312.7L912 504.4L900 306.9Z" fill="#472ea5" stroke="#472ea5"></path><path d="M900 306.9L930 0L900 250Z" fill="#472ea5" stroke="#472ea5"></path><path d="M900 250L930 0L900 221.3Z" fill="#6242d8" stroke="#6242d8"></path><path d="M900 221.3L930 0L900 211.1Z" fill="#422a9b" stroke="#422a9b"></path><path d="M900 211.1L930 0L900 183.4Z" fill="#6746e3" stroke="#6746e3"></path><path d="M900 183.4L930 0L900 138.6Z" fill="#6746e3" stroke="#6746e3"></path><path d="M900 138.6L930 0L900 99.7Z" fill="#4c32af" stroke="#4c32af"></path><path d="M749 612.1L849 600L798 600Z" fill="#422a9b" stroke="#422a9b"></path><path d="M798 600L849 600L795 560.3Z" fill="#422a9b" stroke="#422a9b"></path><path d="M114 545.4L143 600L162 589.3Z" fill="#382388" stroke="#382388"></path><path d="M160 -2.1L124 12.9L195 41.9Z" fill="#6242d8" stroke="#6242d8"></path><path d="M0 432.6L65 501.6L88 400.4Z" fill="#6242d8" stroke="#6242d8"></path><path d="M94 600L116 617.1L143 600Z" fill="#422a9b" stroke="#422a9b"></path><path d="M0 412.7L88 400.4L64 365.7Z" fill="#6242d8" stroke="#6242d8"></path><path d="M124 12.9L77 64.7L127 69.7Z" fill="#331f7e" stroke="#331f7e"></path><path d="M849 600L900 567.1L822 542.4Z" fill="#6746e3" stroke="#6746e3"></path><path d="M77 64.7L42 115.7L96 138.6Z" fill="#6746e3" stroke="#6746e3"></path><path d="M-4 266L74 284.3L54 245.4Z" fill="#6746e3" stroke="#6746e3"></path><path d="M-4 266L0 333.9L74 284.3Z" fill="#6242d8" stroke="#6242d8"></path><path d="M124 12.9L90 0L77 64.7Z" fill="#382388" stroke="#382388"></path><path d="M0 120.7L14 156.3L42 115.7Z" fill="#422a9b" stroke="#422a9b"></path><path d="M160 -2.1L103 0L124 12.9Z" fill="#382388" stroke="#382388"></path><path d="M95 -19.1L103 0L160 -2.1Z" fill="#5c3ece" stroke="#5c3ece"></path><path d="M94 600L143 600L114 545.4Z" fill="#3d2691" stroke="#3d2691"></path><path d="M143 600L116 617.1L197 633.1Z" fill="#5136b9" stroke="#5136b9"></path><path d="M-4 266L54 245.4L0 204.1Z" fill="#3d2691" stroke="#3d2691"></path><path d="M0 333.9L0 352L64 365.7Z" fill="#472ea5" stroke="#472ea5"></path><path d="M930 0L869 52.7L900 99.7Z" fill="#6242d8" stroke="#6242d8"></path><path d="M930 0L900 0L869 52.7Z" fill="#5136b9" stroke="#5136b9"></path><path d="M869 52.7L900 0L863 52.7Z" fill="#6242d8" stroke="#6242d8"></path><path d="M795 -4.1L900 -18.1L706 0Z" fill="#422a9b" stroke="#422a9b"></path><path d="M0 204.1L54 245.4L56 191.3Z" fill="#5c3ece" stroke="#5c3ece"></path><path d="M0 333.9L-27 391.6L0 352Z" fill="#6746e3" stroke="#6746e3"></path><path d="M0 153.3L14 156.3L-4 139.4Z" fill="#472ea5" stroke="#472ea5"></path><path d="M42 115.7L14 156.3L56 191.3Z" fill="#6242d8" stroke="#6242d8"></path><path d="M900 567.1L900 600L912 504.4Z" fill="#3d2691" stroke="#3d2691"></path><path d="M849 600L900 600L900 567.1Z" fill="#6242d8" stroke="#6242d8"></path><path d="M749 612.1L900 600L849 600Z" fill="#6242d8" stroke="#6242d8"></path><path d="M95 -19.1L90 0L103 0Z" fill="#4c32af" stroke="#4c32af"></path><path d="M103 0L90 0L124 12.9Z" fill="#472ea5" stroke="#472ea5"></path><path d="M0 571.1L94 600L65 501.6Z" fill="#5c3ece" stroke="#5c3ece"></path><path d="M65 501.6L94 600L114 545.4Z" fill="#573ac3" stroke="#573ac3"></path><path d="M14 156.3L0 204.1L56 191.3Z" fill="#422a9b" stroke="#422a9b"></path><path d="M-27 391.6L0 412.7L0 352Z" fill="#331f7e" stroke="#331f7e"></path><path d="M0 352L0 412.7L64 365.7Z" fill="#4c32af" stroke="#4c32af"></path><path d="M930 0L900 -18.1L900 0Z" fill="#5c3ece" stroke="#5c3ece"></path><path d="M900 0L900 -18.1L795 -4.1Z" fill="#422a9b" stroke="#422a9b"></path><path d="M-4 139.4L14 156.3L0 120.7Z" fill="#4c32af" stroke="#4c32af"></path><path d="M273 -28.1L95 -19.1L160 -2.1Z" fill="#6242d8" stroke="#6242d8"></path><path d="M-27 391.6L0 432.6L0 412.7Z" fill="#382388" stroke="#382388"></path><path d="M0 412.7L0 432.6L88 400.4Z" fill="#382388" stroke="#382388"></path><path d="M42 115.7L77 64.7L18 77.7Z" fill="#5136b9" stroke="#5136b9"></path><path d="M14 156.3L0 153.3L0 204.1Z" fill="#4c32af" stroke="#4c32af"></path><path d="M0 204.1L-31 275.9L-4 266Z" fill="#4c32af" stroke="#4c32af"></path><path d="M912 504.4L930 0L900 306.9Z" fill="#472ea5" stroke="#472ea5"></path><path d="M18 77.7L77 64.7L28 33.9Z" fill="#4c32af" stroke="#4c32af"></path><path d="M0 153.3L-4 139.4L0 204.1Z" fill="#5c3ece" stroke="#5c3ece"></path><path d="M28 33.9L77 64.7L90 0Z" fill="#382388" stroke="#382388"></path><path d="M0 109.6L0 120.7L42 115.7Z" fill="#6242d8" stroke="#6242d8"></path><path d="M-4 139.4L-31 275.9L0 204.1Z" fill="#331f7e" stroke="#331f7e"></path><path d="M-4 266L-31 275.9L0 333.9Z" fill="#331f7e" stroke="#331f7e"></path><path d="M0 120.7L0 109.6L-4 139.4Z" fill="#4c32af" stroke="#4c32af"></path><path d="M-4 139.4L-28 0L-31 275.9Z" fill="#3d2691" stroke="#3d2691"></path><path d="M0 102.4L0 109.6L42 115.7Z" fill="#573ac3" stroke="#573ac3"></path><path d="M-31 275.9L-27 391.6L0 333.9Z" fill="#422a9b" stroke="#422a9b"></path><path d="M0 432.6L0 501.4L65 501.6Z" fill="#4c32af" stroke="#4c32af"></path><path d="M18 77.7L0 102.4L42 115.7Z" fill="#4c32af" stroke="#4c32af"></path><path d="M0 109.6L0 102.4L-4 139.4Z" fill="#573ac3" stroke="#573ac3"></path><path d="M-27 391.6L0 501.4L0 432.6Z" fill="#472ea5" stroke="#472ea5"></path><path d="M0 0L28 33.9L90 0Z" fill="#422a9b" stroke="#422a9b"></path><path d="M18 77.7L0 46.9L0 102.4Z" fill="#5c3ece" stroke="#5c3ece"></path><path d="M0 0L0 46.9L28 33.9Z" fill="#5136b9" stroke="#5136b9"></path><path d="M28 33.9L0 46.9L18 77.7Z" fill="#6242d8" stroke="#6242d8"></path><path d="M0 102.4L-28 0L-4 139.4Z" fill="#6242d8" stroke="#6242d8"></path><path d="M-28 561.3L-8 555.1L0 501.4Z" fill="#331f7e" stroke="#331f7e"></path><path d="M0 501.4L-8 555.1L65 501.6Z" fill="#3d2691" stroke="#3d2691"></path><path d="M94 600L0 600L116 617.1Z" fill="#5136b9" stroke="#5136b9"></path><path d="M-8 555.1L0 571.1L65 501.6Z" fill="#5c3ece" stroke="#5c3ece"></path><path d="M-28 561.3L0 578.3L0 571.1Z" fill="#331f7e" stroke="#331f7e"></path><path d="M0 571.1L0 578.3L94 600Z" fill="#422a9b" stroke="#422a9b"></path><path d="M95 -19.1L0 0L90 0Z" fill="#5136b9" stroke="#5136b9"></path><path d="M0 46.9L-28 0L0 102.4Z" fill="#3d2691" stroke="#3d2691"></path><path d="M-28 561.3L0 600L0 578.3Z" fill="#382388" stroke="#382388"></path><path d="M0 578.3L0 600L94 600Z" fill="#422a9b" stroke="#422a9b"></path><path d="M116 617.1L0 600L197 633.1Z" fill="#6746e3" stroke="#6746e3"></path><path d="M-27 391.6L-28 561.3L0 501.4Z" fill="#422a9b" stroke="#422a9b"></path><path d="M-8 555.1L-28 561.3L0 571.1Z" fill="#6746e3" stroke="#6746e3"></path><path d="M-31 275.9L-28 561.3L-27 391.6Z" fill="#5c3ece" stroke="#5c3ece"></path><path d="M95 -19.1L-28 0L0 0Z" fill="#6746e3" stroke="#6746e3"></path><path d="M0 0L-28 0L0 46.9Z" fill="#472ea5" stroke="#472ea5"></path></g></svg>